<svg height="512" viewBox="0 0 512 512" width="512" xmlns="http://www.w3.org/2000/svg"><g id="_01-fingerprint" data-name="01-fingerprint"><g id="linear_color" data-name="linear color"><path d="m500.924 226.706-224-160a36 36 0 0 0 -41.848 0l-224 160a12 12 0 0 0 -2.79 16.739l27.9 39.059a12 12 0 0 0 16.206 3.151l23.608-15.019v225.364a12 12 0 0 0 12 12h336a12 12 0 0 0 12-12v-225.364l23.609 15.019a12 12 0 0 0 16.206-3.151l27.9-39.059a12 12 0 0 0 -2.791-16.739zm-38.024 32.594-32.455-20.647a12 12 0 0 0 -18.445 10.126v235.221h-312v-235.221a12 12 0 0 0 -18.441-10.125l-32.459 20.646-14.31-20.04 214.235-153.025a12 12 0 0 1 13.95 0l214.235 153.025z"/><path d="m362.1 376.829c.294 18.971.4 53.755-2.217 73.574a12 12 0 0 0 10.328 13.467 12.14 12.14 0 0 0 1.584.1 12 12 0 0 0 11.882-10.432c2.814-21.34 2.724-57.456 2.42-77.085a12 12 0 1 0 -24 .372z"/><path d="m175.442 234.169a114.28 114.28 0 0 0 -47.088 84.976c-2.4 33.663-2.6 75.438-2.6 126.552a12 12 0 1 0 24 0c0-50.629.187-91.97 2.535-124.842a91.353 91.353 0 0 1 36.912-67.024c18.467-12.927 44.155-19.3 70.466-17.479 40.992 2.83 74.963 27.043 90.874 64.768a130.2 130.2 0 0 1 8.062 27.687 12 12 0 1 0 23.614-4.284 153.9 153.9 0 0 0 -9.562-32.73c-19.5-46.241-61.123-75.918-111.334-79.384-32.159-2.219-62.658 5.506-85.879 21.76z"/><path d="m328.432 310.447c-12.5-29.646-38.169-47.926-70.415-50.152a12 12 0 1 0 -1.652 23.943c22.887 1.58 41.095 14.532 49.953 35.535 5.857 13.888 7.072 29.866 7.512 45.063.646 22.287.769 61.794-1.539 79.291a12 12 0 0 0 10.328 13.467 12.14 12.14 0 0 0 1.584.1 12 12 0 0 0 11.882-10.432c3.359-25.465 1.8-80.783 1.735-83.125-.508-17.526-1.997-36.164-9.388-53.69z"/><path d="m191.193 369.125c2.077-34.912 10.509-57.735 26.536-71.827a12 12 0 1 0 -15.846-18.024c-21.156 18.6-32.165 46.7-34.648 88.426-2.067 34.768 1.271 76 1.414 77.739a12 12 0 0 0 11.951 11.016c.33 0 .663-.013 1-.041a12 12 0 0 0 10.975-12.944c-.144-1.67-3.35-41.256-1.382-74.345z"/><path d="m278.3 402a12.036 12.036 0 0 0 -12.265 11.729c-.311 13.932-.9 20.806-1.334 24.119a12 12 0 0 0 10.328 13.466 12.14 12.14 0 0 0 1.584.1 12 12 0 0 0 11.887-10.424c.749-5.679 1.265-14.67 1.534-26.721a12 12 0 0 0 -11.734-12.269z"/><path d="m278.192 377.874a12 12 0 0 0 11.648-12.343c-.431-14.868-1.554-26.754-5.636-36.431-5.366-12.724-15.564-19.957-29.493-20.919a28.4 28.4 0 0 0 -21.133 7.14c-10.751 9.453-16.779 27.518-18.427 55.228-1.87 31.445 1.2 69.349 1.336 70.947a12 12 0 0 0 11.946 11.014c.33 0 .664-.014 1-.041a12 12 0 0 0 10.974-12.945c-.031-.375-3.065-37.833-1.3-67.55 1.721-28.94 8.331-36.884 10.316-38.629a4.413 4.413 0 0 1 3.633-1.221c7.144.493 11.894 3.133 12.792 34.1a11.984 11.984 0 0 0 12.344 11.65z"/></g></g></svg>