<svg height="512" viewBox="0 0 512 512" width="512" xmlns="http://www.w3.org/2000/svg"><g id="_02-lighting" data-name="02-lighting"><g id="linear_color" data-name="linear color"><path d="m376 4h-240a28.032 28.032 0 0 0 -28 28v448a28.032 28.032 0 0 0 28 28h240a28.032 28.032 0 0 0 28-28v-448a28.032 28.032 0 0 0 -28-28zm-244 79.957h80v22.094a76 76 0 1 0 88 0v-22.094h80v320.086h-248zm149.989 39.013a52 52 0 1 1 -51.978 0 12 12 0 0 0 5.989-10.387v-28.583h40v28.583a12 12 0 0 0 5.989 10.387zm-145.989-94.97h240a4 4 0 0 1 4 4v27.957h-248v-27.957a4 4 0 0 1 4-4zm240 456h-240a4 4 0 0 1 -4-4v-51.957h248v51.957a4 4 0 0 1 -4 4z"/><path d="m282.043 444.022h-50.956a12 12 0 1 0 0 24h50.956a12 12 0 0 0 0-24z"/><path d="m249.344 142.016-24 16a12 12 0 1 0 13.312 19.968l17.344-11.562 17.344 11.562a12 12 0 1 0 13.312-19.968l-24-16a12 12 0 0 0 -13.312 0z"/><path d="m256 300a12 12 0 0 0 12-12v-8a12 12 0 0 0 -24 0v8a12 12 0 0 0 12 12z"/><path d="m332.368 261.338a12 12 0 0 0 16.97-16.97l-5.657-5.658a12 12 0 0 0 -16.971 16.971z"/><path d="m171.147 264.853a11.958 11.958 0 0 0 8.485-3.515l5.658-5.657a12 12 0 0 0 -16.971-16.971l-5.657 5.658a12 12 0 0 0 8.485 20.485z"/><path d="m344 340h-132v-4a12 12 0 0 0 -24 0v4h-20a12 12 0 0 0 0 24h20v4a12 12 0 0 0 24 0v-4h132a12 12 0 0 0 0-24z"/></g></g></svg>