<svg height="512" viewBox="0 0 512 512" width="512" xmlns="http://www.w3.org/2000/svg"><g id="_04-a_c" data-name="04-a/c"><g id="linear_color" data-name="linear color"><path d="m472 180h-432a36.04 36.04 0 0 0 -36 36v144a36.04 36.04 0 0 0 36 36h432a36.04 36.04 0 0 0 36-36v-144a36.04 36.04 0 0 0 -36-36zm-380 192v-16h328v16zm392-12a12.013 12.013 0 0 1 -12 12h-28v-28a12 12 0 0 0 -12-12h-352a12 12 0 0 0 -12 12v28h-28a12.013 12.013 0 0 1 -12-12v-144a12.013 12.013 0 0 1 12-12h432a12.013 12.013 0 0 1 12 12z"/><path d="m384 228h-304a12 12 0 0 0 0 24h304a12 12 0 0 0 0-24z"/><path d="m384 276h-304a12 12 0 0 0 0 24h304a12 12 0 0 0 0-24z"/><circle cx="432" cy="288" r="12"/><circle cx="432" cy="240" r="12"/><path d="m264.485 423.515a12 12 0 0 0 -16.97 16.97c2.756 2.756-.248 11.768-2.9 19.72-4.366 13.1-10.345 31.036 2.9 44.28a12 12 0 0 0 16.97-16.97c-2.756-2.756.248-11.768 2.9-19.72 4.365-13.095 10.344-31.036-2.9-44.28z"/><path d="m179.485 423.515a12 12 0 0 0 -16.97 16.97c2.756 2.756-.248 11.768-2.9 19.72-4.366 13.1-10.345 31.036 2.9 44.28a12 12 0 0 0 16.97-16.97c-2.756-2.756.248-11.768 2.9-19.72 4.365-13.095 10.344-31.036-2.9-44.28z"/><path d="m347.485 423.515a12 12 0 0 0 -16.97 16.97c2.756 2.756-.248 11.768-2.9 19.72-4.366 13.1-10.345 31.036 2.9 44.28a12 12 0 0 0 16.97-16.97c-2.756-2.756.248-11.768 2.9-19.72 4.365-13.095 10.344-31.036-2.9-44.28z"/><circle cx="256" cy="144" r="12"/><path d="m295.6 116.4a12 12 0 0 0 8.485-20.485 68 68 0 0 0 -96.166 0 12 12 0 0 0 16.971 16.97 44 44 0 0 1 62.224 0 11.963 11.963 0 0 0 8.486 3.515z"/><path d="m190.946 78.946a92 92 0 0 1 130.108 0 12 12 0 0 0 16.97-16.97 116 116 0 0 0 -164.048 0 12 12 0 0 0 16.97 16.97z"/></g></g></svg>