<?xml version="1.0" encoding="UTF-8"?>
<svg xmlns="http://www.w3.org/2000/svg" viewBox="0 0 512 512" width="512" height="512"><g id="_05-security" data-name="05-security"><g id="linear_color" data-name="linear color"><path d="M232,372h12v20a12,12,0,0,0,24,0V372h12a12,12,0,0,0,0-24H232a12,12,0,0,0,0,24Z"/><path d="M508,240A124.017,124.017,0,0,0,351.873,120.229L276.928,66.708a35.991,35.991,0,0,0-41.852,0l-224.05,160a12,12,0,0,0-2.79,16.742l27.91,39.059a12,12,0,0,0,16.2,3.149l23.62-15.022V496a12,12,0,0,0,12,12H424.03a12,12,0,0,0,12-12V352.54A124.162,124.162,0,0,0,508,240ZM412.03,484H99.97V248.78a12,12,0,0,0-18.44-10.126L49.063,259.3,34.742,239.26,249.027,86.233a12,12,0,0,1,13.95,0l62.368,44.54a124.8,124.8,0,0,0-54.566,58.678A76.4,76.4,0,0,0,256,188a75.983,75.983,0,0,0-76,76v36.228A36.047,36.047,0,0,0,148,336V440a12,12,0,0,0,12,12H352a12,12,0,0,0,12-12V362.379a124.38,124.38,0,0,0,48.03-1.575ZM184,324H292.874A124.437,124.437,0,0,0,340,355.927V428H172V336A12.013,12.013,0,0,1,184,324Zm20-24V264a51.985,51.985,0,0,1,52-52,52.672,52.672,0,0,1,7.083.481A123.946,123.946,0,0,0,275.516,300Zm180,40A100,100,0,1,1,484,240,100.113,100.113,0,0,1,384,340Z"/><circle cx="384.551" cy="296" r="12.002"/><path d="M422.746,239.73a68.044,68.044,0,0,0-77.727.933,12,12,0,1,0,13.962,19.52,44.045,44.045,0,0,1,50.273-.6,12,12,0,0,0,13.492-19.849Z"/><path d="M455.326,204.079a116.052,116.052,0,0,0-142.778.959,12,12,0,0,0,14.9,18.812,92.052,92.052,0,0,1,113.222-.763,12,12,0,1,0,14.652-19.008Z"/></g></g></svg>
