<?xml version="1.0" encoding="UTF-8"?>
<svg xmlns="http://www.w3.org/2000/svg" viewBox="0 0 512 512" width="512" height="512"><g id="_06-garage" data-name="06-garage"><g id="linear_color" data-name="linear color"><path d="M507,240A124.016,124.016,0,0,0,350.873,120.229L275.922,66.7a36,36,0,0,0-41.846,0l-224.05,160a12,12,0,0,0-2.79,16.742l27.91,39.059a12,12,0,0,0,16.206,3.149L74.96,270.636V496a12,12,0,0,0,12,12H423.03a12,12,0,0,0,12-12V352.539A124.161,124.161,0,0,0,507,240ZM92.735,238.261a12,12,0,0,0-12.216.394L48.063,259.3,33.742,239.26,248.027,86.233a12,12,0,0,1,13.95,0l62.367,44.539A124.047,124.047,0,0,0,262.188,268H144a12,12,0,0,0-12,12V484H98.96V248.78A12,12,0,0,0,92.735,238.261ZM356,420H268V380.971l3.515,3.514a12,12,0,0,0,16.97-16.97l-24-24a12,12,0,0,0-16.97,0l-24,24a12,12,0,0,0,16.97,16.97L244,380.971V420H156V292H270.445A124.478,124.478,0,0,0,356,361.031ZM156,484V444H356v40Zm255.03,0H380V363.962q1.5.036,3,.038a123.932,123.932,0,0,0,28.031-3.2ZM383,340A100,100,0,1,1,483,240,100.113,100.113,0,0,1,383,340Z"/><path d="M383.549,284a12,12,0,1,0,12,12A12,12,0,0,0,383.549,284Z"/><path d="M421.744,239.73a68.042,68.042,0,0,0-77.726.933,12,12,0,1,0,13.962,19.52,44.044,44.044,0,0,1,50.274-.6,12,12,0,1,0,13.49-19.85Z"/><path d="M454.324,204.079a116.049,116.049,0,0,0-142.777.96,12,12,0,1,0,14.9,18.81,92.055,92.055,0,0,1,113.223-.762,12,12,0,1,0,14.65-19.008Z"/></g></g></svg>
