<?xml version="1.0" encoding="UTF-8"?>
<svg xmlns="http://www.w3.org/2000/svg" viewBox="0 0 512 512" width="512" height="512"><g id="_07-watch" data-name="07-watch"><g id="linear_color" data-name="linear color"><path d="M376,188H364V168a36.04,36.04,0,0,0-33.475-35.9L314.9,14.42A12,12,0,0,0,303,4H208a12,12,0,0,0-11.907,10.512L181.394,132.1A36.039,36.039,0,0,0,148,168V344A36.039,36.039,0,0,0,181.394,379.9l14.7,117.593A12,12,0,0,0,208,508h95a12,12,0,0,0,11.9-10.42L330.525,379.9A36.04,36.04,0,0,0,364,344V212h12a12,12,0,0,0,0-24ZM218.593,28h73.9L306.3,132H205.593Zm73.9,456h-73.9l-13-104H306.3ZM340,344a12.013,12.013,0,0,1-12,12H184a12.013,12.013,0,0,1-12-12V168a12.013,12.013,0,0,1,12-12H328a12.013,12.013,0,0,1,12,12Z"/><path d="M310.656,238.016l-48-32a12,12,0,0,0-13.312,0l-48,32A11.993,11.993,0,0,0,212,259.3V296a12,12,0,0,0,12,12h64a12,12,0,0,0,12-12V259.309a12,12,0,0,0,10.656-21.293ZM236,284V243.755l20-13.333,20,13.333V284Z"/><path d="M406.6,214.24a12,12,0,0,0-2.779,16.741,44.045,44.045,0,0,1,.6,50.273,12,12,0,1,0,19.849,13.492,68.044,68.044,0,0,0-.933-77.727A12,12,0,0,0,406.6,214.24Z"/><path d="M458.962,184.547a12,12,0,0,0-18.812,14.905,92.052,92.052,0,0,1,.763,113.222,12,12,0,1,0,19.008,14.652,116.053,116.053,0,0,0-.959-142.779Z"/><path d="M105.4,214.24a12,12,0,0,0-16.741,2.779,68.044,68.044,0,0,0-.933,77.727,12,12,0,0,0,19.849-13.492,44.045,44.045,0,0,1,.6-50.273A12,12,0,0,0,105.4,214.24Z"/><path d="M69.9,182.594a12,12,0,0,0-16.858,1.953,116.053,116.053,0,0,0-.959,142.779,12,12,0,0,0,19.008-14.652,92.052,92.052,0,0,1,.763-113.222A12,12,0,0,0,69.9,182.594Z"/></g></g></svg>
