<svg height="512" viewBox="0 0 512 512" width="512" xmlns="http://www.w3.org/2000/svg"><g id="_08-voice" data-name="08-voice"><g id="linear_color" data-name="linear color"><path d="m505.834 234.5a12 12 0 0 0 -4.862-7.793l-224.046-160.007a36.018 36.018 0 0 0 -41.853 0l-224.045 160a12 12 0 0 0 -2.79 16.741l27.905 39.059a12 12 0 0 0 16.2 3.15l23.619-15.022v225.372a12 12 0 0 0 12 12h336.072a12 12 0 0 0 12-12v-225.367l23.619 15.022a12 12 0 0 0 16.2-3.15l27.9-39.059a12 12 0 0 0 2.081-8.946zm-42.9 24.8-32.464-20.648a12 12 0 0 0 -18.44 10.125v235.223h-312.064v-235.221a12 12 0 0 0 -18.44-10.125l-32.464 20.646-14.318-20.04 214.277-153.024a12.012 12.012 0 0 1 13.958 0l214.277 153.024z"/><path d="m256 364a84.1 84.1 0 0 1 -84-84 12 12 0 0 0 -24 0 108.152 108.152 0 0 0 96 107.33v48.67h-20a12 12 0 0 0 0 24h64a12 12 0 0 0 0-24h-20v-48.67a108.152 108.152 0 0 0 96-107.33 12 12 0 0 0 -24 0 84.1 84.1 0 0 1 -84 84z"/><path d="m196 232v48a60 60 0 0 0 120 0v-48a60 60 0 0 0 -120 0zm60 84a36.04 36.04 0 0 1 -36-36v-12h72v12a36.04 36.04 0 0 1 -36 36zm36-84v12h-72v-12a36 36 0 0 1 72 0z"/></g></g></svg>