<?xml version="1.0" encoding="UTF-8"?>
<svg xmlns="http://www.w3.org/2000/svg" viewBox="0 0 512 512" width="512" height="512"><g id="_09-music" data-name="09-music"><g id="linear_color" data-name="linear color"><circle cx="280.551" cy="440" r="12.002"/><path d="M144,220a44,44,0,1,0-44-44A44.049,44.049,0,0,0,144,220Zm0-64a20,20,0,1,1-20,20A20.023,20.023,0,0,1,144,156Z"/><path d="M284,260.071V120a36.04,36.04,0,0,0-36-36H40A36.04,36.04,0,0,0,4,120V440a36.04,36.04,0,0,0,36,36H196.952A123.973,123.973,0,1,0,284,260.071ZM28,440V120a12.013,12.013,0,0,1,12-12H248a12.013,12.013,0,0,1,12,12V261.621a123.151,123.151,0,0,0-44.468,16.493,92,92,0,1,0-52.22,147.842A123.693,123.693,0,0,0,176.362,452H40A12.013,12.013,0,0,1,28,440Zm116-84a20,20,0,1,1,20-20A20.023,20.023,0,0,1,144,356Zm36.007-45.241a44,44,0,1,0-23.87,67.525c-.087,1.895-.137,3.8-.137,5.716a124.5,124.5,0,0,0,1.4,18.666A68,68,0,1,1,144,268a67.464,67.464,0,0,1,52.336,24.561A125.045,125.045,0,0,0,180.007,310.759ZM280,484A100,100,0,1,1,380,384,100.113,100.113,0,0,1,280,484Z"/><circle cx="280.551" cy="440" r="12.002"/><path d="M318.746,383.73a68.044,68.044,0,0,0-77.727.933,12,12,0,1,0,13.962,19.52,44.045,44.045,0,0,1,50.273-.6,12,12,0,0,0,13.492-19.849Z"/><path d="M208.547,349.038a12,12,0,0,0,14.905,18.812,92.052,92.052,0,0,1,113.222-.763,12,12,0,0,0,14.652-19.008,116.053,116.053,0,0,0-142.779.959Z"/><path d="M320.009,196a11.96,11.96,0,0,0,5.358-1.269l16-8A12,12,0,0,0,348,176V120.316l40-15v39.267l-9.367,4.684a12,12,0,0,0,10.734,21.466l16-8A12,12,0,0,0,412,152V88a12,12,0,0,0-16.213-11.236l-64,24A12,12,0,0,0,324,112v56.583l-9.367,4.684A12,12,0,0,0,320.009,196Z"/><path d="M499.236,11.787a12,12,0,0,0-15.449-7.023l-24,9A12,12,0,0,0,452,25V81.583l-9.367,4.684a12,12,0,1,0,10.734,21.466l16-8A12,12,0,0,0,476,89V33.316l16.213-6.08A12,12,0,0,0,499.236,11.787Z"/><path d="M486.835,166.137a12,12,0,0,0-11.048-1.373l-64,24A12,12,0,0,0,404,200v56.583l-9.367,4.684a12,12,0,1,0,10.734,21.466l16-8A12,12,0,0,0,428,264V208.316l40-15v39.267l-9.367,4.684a12,12,0,0,0,10.734,21.466l16-8A12,12,0,0,0,492,240V176A12,12,0,0,0,486.835,166.137Z"/></g></g></svg>
