<svg height="512" viewBox="0 0 512 512" width="512" xmlns="http://www.w3.org/2000/svg"><g id="_10-mobile" data-name="10-mobile"><g id="linear_color" data-name="linear color"><path d="m282.02 444.022h-50.963a12 12 0 1 0 0 24h50.963a12 12 0 1 0 0-24z"/><path d="m456 164c-20.64 0-38.513 5.8-51.689 16.781-.106.088-.212.182-.318.271v-149.052a28.034 28.034 0 0 0 -28-28h-240.035a28.034 28.034 0 0 0 -28 28v21.925a44 44 0 0 0 -60.063 64.25l41.005 41.005a43.983 43.983 0 0 0 -15.69 72.305l21.89 21.89a43.965 43.965 0 0 0 -21.892 74.11l13.892 13.89a43.977 43.977 0 0 0 -21.892 74.11l42.745 42.74v21.775a28.034 28.034 0 0 0 28 28h192.029a11.995 11.995 0 0 0 11.059-7.329 11.967 11.967 0 0 0 .943-4.671v-96a52.246 52.246 0 0 1 20.8-41.6l38.4-28.8a12.125 12.125 0 0 0 4.8-9.6v-80c0-36.767 21.519-48.117 40-51.08v307.08a12 12 0 0 0 24 0v-320a12 12 0 0 0 -11.984-12zm-324.043-132a4 4 0 0 1 4-4h240.03a4 4 0 0 1 4 4v27.956h-248.03zm-67.093 40.915c7.441-7.755 20.852-7.755 28.293 0l14.8 14.8v56.578l-43.09-43.084a20.026 20.026 0 0 1 -.003-28.294zm25.319 113.315a20.026 20.026 0 0 1 28.287 0l45.261 45.255c7.76 7.445 7.759 20.84 0 28.285a20.027 20.027 0 0 1 -28.288 0l-45.261-45.255a20.023 20.023 0 0 1 .001-28.285zm0 96a20.026 20.026 0 0 1 28.287 0l45.261 45.255c7.76 7.445 7.759 20.84 0 28.285-7.446 7.758-20.842 7.758-28.288 0l-45.261-45.255c-7.76-7.445-7.759-20.84.001-28.285zm-8 88a20.027 20.027 0 0 1 28.288 0l45.261 45.255a20.022 20.022 0 0 1 0 28.285 20.027 20.027 0 0 1 -28.288 0l-45.263-45.255a20.022 20.022 0 0 1 0-28.285zm49.774 109.77v-7.463c27.322 6.764 55.238-16.444 53.576-44.5h130.448v55.963h-180.023a4 4 0 0 1 -4.001-4zm214.428-140.8a76.361 76.361 0 0 0 -30.4 60.8v4.04h-138.6c-1.385-1.936-18.567-19.415-18.567-19.415a43.977 43.977 0 0 0 21.893-74.11l-21.893-21.89a43.977 43.977 0 0 0 21.893-74.11s-47.551-47.415-48.754-48.385v-82.174h248.032v230.044z"/><path d="m310.656 289.95-48-32a12 12 0 0 0 -13.312 0l-48 32a11.993 11.993 0 0 0 10.656 21.285v36.7a12 12 0 0 0 12 12h64a12 12 0 0 0 12-12v-36.691a12 12 0 0 0 10.656-21.294zm-74.656 45.985v-40.245l20-13.333 20 13.333v40.245z"/><circle cx="256.551" cy="223" r="12.002"/><path d="m297.924 183.4a12 12 0 0 0 -3.178-16.671 68.044 68.044 0 0 0 -77.727.933 12 12 0 1 0 13.962 19.52 44.045 44.045 0 0 1 50.273-.6 12 12 0 0 0 16.67-3.182z"/><path d="m327.326 131.079a116.052 116.052 0 0 0 -142.778.959 12 12 0 0 0 14.9 18.812 92.052 92.052 0 0 1 113.222-.763 12 12 0 1 0 14.652-19.008z"/></g></g></svg>