<svg height="512" viewBox="0 0 512 512" width="512" xmlns="http://www.w3.org/2000/svg"><g id="_11-power" data-name="11-power"><g id="linear_color" data-name="linear color"><path d="m500.505 218.711-223.6-160a35.925 35.925 0 0 0 -41.815 0l-223.6 160a12 12 0 0 0 -2.787 16.726l27.854 39.063a12 12 0 0 0 16.219 3.153l23.524-14.997v225.344a12 12 0 0 0 12 12h335.4a12 12 0 0 0 12-12v-225.344l23.527 14.993a12 12 0 0 0 16.219-3.153l27.849-39.059a12 12 0 0 0 -2.79-16.726zm-37.989 32.577-32.37-20.628a12 12 0 0 0 -18.446 10.119v235.221h-311.4v-235.221a12 12 0 0 0 -18.446-10.119l-32.37 20.628-14.284-20.03 213.858-153.029a11.928 11.928 0 0 1 13.883 0l213.859 153.029z"/><path d="m132 318a124 124 0 1 0 124-124 124.14 124.14 0 0 0 -124 124zm224 0a100 100 0 1 1 -100-100 100.113 100.113 0 0 1 100 100z"/><path d="m256 372a52.039 52.039 0 0 1 -48.225-71.5 12 12 0 1 0 -22.246-9 76 76 0 1 0 140.942 0 12 12 0 1 0 -22.246 9 52.039 52.039 0 0 1 -48.225 71.5z"/><path d="m244 256v72a12 12 0 0 0 24 0v-72a12 12 0 0 0 -24 0z"/></g></g></svg>