<svg height="512" viewBox="0 0 512 512" width="512" xmlns="http://www.w3.org/2000/svg"><g id="_12-lock" data-name="12-lock"><g id="linear_color" data-name="linear color"><circle cx="152.551" cy="172" r="12.002"/><circle cx="152" cy="220" r="12"/><circle cx="152" cy="267" r="12"/><circle cx="204" cy="220" r="12"/><circle cx="204" cy="267" r="12"/><circle cx="100" cy="220" r="12"/><circle cx="100" cy="267" r="12"/><path d="m464 348c-.1 0-.2 0-.3 0l-171.7 4.3v-304.3a44.049 44.049 0 0 0 -44-44h-192a44.049 44.049 0 0 0 -44 44v416a44.049 44.049 0 0 0 44 44h192a44.049 44.049 0 0 0 44-44v-48.3l171.7 4.3h.3a36 36 0 0 0 0-72zm-196 116a20.023 20.023 0 0 1 -20 20h-192a20.023 20.023 0 0 1 -20-20v-416a20.023 20.023 0 0 1 20-20h192a20.023 20.023 0 0 1 20 20v304.9l-46.136 1.154a76 76 0 1 0 0 59.9l46.136 1.146zm-124.3-52 51.259 1.282a52 52 0 1 1 0-58.556l-51.259 1.274a12 12 0 0 0 -11.7 12v32a12 12 0 0 0 11.7 12zm320.425-16-308.125-7.7v-8.6l308.125-7.7a12 12 0 0 1 0 24z"/><circle cx="152.551" cy="172" r="12.002"/><path d="m193.924 132.4a12 12 0 0 0 -3.178-16.671 68.044 68.044 0 0 0 -77.727.933 12 12 0 1 0 13.962 19.52 44.045 44.045 0 0 1 50.273-.6 12 12 0 0 0 16.67-3.182z"/><path d="m88.008 102.444a11.954 11.954 0 0 0 7.444-2.594 92.052 92.052 0 0 1 113.222-.763 12 12 0 1 0 14.652-19.008 116.052 116.052 0 0 0 -142.778.959 12 12 0 0 0 7.46 21.406z"/><circle cx="152" cy="220" r="12"/><circle cx="152" cy="267" r="12"/><circle cx="204" cy="220" r="12"/><circle cx="204" cy="267" r="12"/><circle cx="100" cy="220" r="12"/><circle cx="100" cy="267" r="12"/></g></g></svg>