<?xml version="1.0" encoding="UTF-8"?>
<svg xmlns="http://www.w3.org/2000/svg" viewBox="0 0 512 512" width="512" height="512"><g id="_13-sheild" data-name="13-sheild"><g id="linear_color" data-name="linear color"><path d="M505.834,234.5a12,12,0,0,0-4.862-7.793L276.926,66.7a36.018,36.018,0,0,0-41.853,0l-224.045,160a12,12,0,0,0-2.79,16.741l27.905,39.059a12,12,0,0,0,16.2,3.15l23.619-15.022V496a12,12,0,0,0,12,12H424.034a12,12,0,0,0,12-12V270.633l23.619,15.022a12,12,0,0,0,16.2-3.15l27.9-39.059A12,12,0,0,0,505.834,234.5Zm-42.9,24.8-32.464-20.648a12,12,0,0,0-18.44,10.125V484H99.966V248.779a12,12,0,0,0-18.44-10.125L49.062,259.3,34.744,239.26,249.021,86.236a12.012,12.012,0,0,1,13.958,0L477.256,239.26Z"/><path d="M248.5,206.629C238.292,214.8,206.8,236,184,236c-12.857,0-26.522-6.678-26.633-6.733A12,12,0,0,0,140,240V360c0,21.19,18.787,43.775,57.433,69.043A467.456,467.456,0,0,0,250.971,458.9a12.006,12.006,0,0,0,10.058,0,467.456,467.456,0,0,0,53.538-29.853C353.213,403.775,372,381.19,372,360V240a12,12,0,0,0-17.367-10.733C354.5,229.334,340.809,236,328,236c-22.7,0-54.265-21.206-64.5-29.371A12,12,0,0,0,248.5,206.629ZM328,260a78.231,78.231,0,0,0,20-2.884V360c0,4.33-3.343,20.648-46.357,48.819A452.075,452.075,0,0,1,256,434.682a452.276,452.276,0,0,1-45.643-25.863C167.343,380.648,164,364.33,164,360V257.116A78.231,78.231,0,0,0,184,260c27.257,0,58.068-19.256,72-29.069C269.932,240.744,300.743,260,328,260Z"/><circle cx="256.551" cy="393" r="12" transform="translate(-137.441 648.026) rotate(-89.778)"/><path d="M294.746,336.73a68.044,68.044,0,0,0-77.727.933,12,12,0,1,0,13.962,19.52,44.045,44.045,0,0,1,50.273-.6,12,12,0,0,0,13.492-19.849Z"/><path d="M182.594,318.9a12,12,0,0,0,16.858,1.954,92.052,92.052,0,0,1,113.222-.763,12,12,0,0,0,14.652-19.008,116.053,116.053,0,0,0-142.779.959A12,12,0,0,0,182.594,318.9Z"/></g></g></svg>
