<?xml version="1.0" encoding="UTF-8"?>
<svg xmlns="http://www.w3.org/2000/svg" viewBox="0 0 512 512" width="512" height="512"><g id="_14-alarm" data-name="14-alarm"><g id="linear_color" data-name="linear color"><path d="M240,476a12,12,0,0,0-12,12v8a12,12,0,0,0,24,0v-8A12,12,0,0,0,240,476Z"/><path d="M401.22,416.25a12,12,0,0,0-16.97,16.97l5.657,5.657a12,12,0,0,0,16.97-16.97Z"/><path d="M78.78,416.25l-5.657,5.657a12,12,0,1,0,16.97,16.97l5.657-5.657a12,12,0,0,0-16.97-16.97Z"/><path d="M24,260H16a12,12,0,0,0,0,24h8a12,12,0,0,0,0-24Z"/><path d="M384,4A124.027,124.027,0,0,0,271.415,180H16a12,12,0,0,0,0,24H77.174l27.189,163.121A91.7,91.7,0,0,0,195.11,444h89.78a91.7,91.7,0,0,0,90.747-76.877l19.268-115.608A124,124,0,0,0,384,4ZM228,204h24V312a12,12,0,0,1-24,0Zm-24,0V312a36,36,0,0,0,72,0V204h10.039a124.4,124.4,0,0,0,38.342,32.739L304.625,355.281A19.954,19.954,0,0,1,284.89,372H195.11a19.95,19.95,0,0,1-19.733-16.713L150.165,204Zm80.89,216H195.11a67.776,67.776,0,0,1-67.073-56.823L101.505,204h24.329l25.871,155.239A43.878,43.878,0,0,0,195.11,396h89.78A43.882,43.882,0,0,0,328.3,359.232l18.8-112.819a122.507,122.507,0,0,0,23.511,4.877L351.963,363.179A67.777,67.777,0,0,1,284.89,420Zm99.7-192.01c-.13,0-.213,0-.325.007-.031,0-.062,0-.093,0H384a99.242,99.242,0,0,1-41.361-8.923,100.348,100.348,0,0,1-40.719-33.945A100,100,0,1,1,484,128C484,182.823,439.406,227.679,384.592,227.99Z"/><circle cx="384.551" cy="184" r="12.002"/><path d="M422.746,127.73a68.044,68.044,0,0,0-77.727.933,12,12,0,1,0,13.962,19.52,44.045,44.045,0,0,1,50.273-.6,12,12,0,0,0,13.492-19.849Z"/><path d="M455.326,92.079a116.053,116.053,0,0,0-142.779.959,12,12,0,0,0,14.9,18.812,92.052,92.052,0,0,1,113.222-.763,12,12,0,0,0,14.652-19.008Z"/></g></g></svg>
