<svg height="512" viewBox="0 0 512 512" width="512" xmlns="http://www.w3.org/2000/svg"><g id="_15-cctv" data-name="15-cctv"><g id="linear_color" data-name="linear color"><circle cx="125.097" cy="66.956" r="12"/><circle cx="382.689" cy="102.256" r="12"/><circle cx="335.134" cy="95.739" r="12"/><circle cx="336.551" cy="440" r="12.002"/><path d="m481.439 59.261-396.3-54.3a12 12 0 0 0 -13.518 10.261l-18.46 134.738a12.069 12.069 0 0 0 10.26 13.519l67.371 9.231-1.629 11.89a12 12 0 0 0 8.327 13.089l20.582 6.4a19.939 19.939 0 0 1 13.88 21.814c-3.27 14.166 2.324 28.5 16.048 34.389v23.708h-112v-28a12 12 0 0 0 -12-12h-48a12 12 0 0 0 -12 12v128a12 12 0 0 0 12 12h48a12 12 0 0 0 12-12v-28h139.188a124.225 124.225 0 1 0 47.581-72h-50.769v-24.638c9.934-5.039 14.783-15.075 15.433-25.862a19.936 19.936 0 0 1 19.235-17.276l21.546-.624a12 12 0 0 0 11.541-10.366l1.629-11.887 146.627 20.091a11.985 11.985 0 0 0 13.518-10.258l9.841-71.788 30.3-18.254a12 12 0 0 0 5.694-8.651l4.34-31.71a12 12 0 0 0 -10.265-13.516zm-429.439 312.739h-24v-104h24zm24-40v-24h162.09a124.173 124.173 0 0 0 -14.644 24zm360 52a100 100 0 1 1 -100-100 100.113 100.113 0 0 1 100 100zm-190.026-191.766a43.86 43.86 0 0 0 -42.319 38.008c-.552 3.446-.208 8.7-5.17 8.266-4.894-.91-3.151-5.9-2.756-9.353a43.862 43.862 0 0 0 -30.529-47.991l-10.875-3.38 2.422-17.669 103.037 14.12-2.427 17.665zm173.407-4.2-50.523-6.923 56.106-33.811zm44.978-92.487-133.385 80.369-46.332-6.347.544-3.965a12 12 0 0 0 -10.26-13.518l-126.815-17.378c-9.085-.9-13.751 5.851-14.061 14.224l-55.482-7.6 15.2-110.962 372.526 51.04z"/><circle cx="125.097" cy="66.956" r="12" transform="matrix(.525 -.851 .851 .525 2.459 138.316)"/><path d="m381.06 114.144a12 12 0 1 0 -10.26-13.518 12 12 0 0 0 10.26 13.518z"/><path d="m333.5 107.627a12 12 0 1 0 -10.259-13.518 12 12 0 0 0 10.259 13.518z"/><circle cx="336.551" cy="440" r="12.002"/><path d="m374.746 383.73a68.044 68.044 0 0 0 -77.727.933 12 12 0 1 0 13.962 19.52 44.045 44.045 0 0 1 50.273-.6 12 12 0 0 0 13.492-19.849z"/><path d="m262.594 365.9a12 12 0 0 0 16.858 1.954 92.052 92.052 0 0 1 113.222-.763 12 12 0 0 0 14.652-19.008 116.053 116.053 0 0 0 -142.779.959 12 12 0 0 0 -1.953 16.858z"/></g></g></svg>