<svg height="512" viewBox="0 0 512 512" width="512" xmlns="http://www.w3.org/2000/svg"><g id="_16-mobile_water" data-name="16-mobile water"><g id="linear_color" data-name="linear color"><path d="m376 4h-240a28.032 28.032 0 0 0 -28 28v448a28.032 28.032 0 0 0 28 28h240a28.032 28.032 0 0 0 28-28v-448a28.032 28.032 0 0 0 -28-28zm-244 79.957h248v320.086h-248zm4-55.957h240a4 4 0 0 1 4 4v27.957h-248v-27.957a4 4 0 0 1 4-4zm240 456h-240a4 4 0 0 1 -4-4v-51.957h248v51.957a4 4 0 0 1 -4 4z"/><path d="m282.044 444.022h-50.957a12 12 0 1 0 0 24h50.957a12 12 0 0 0 0-24z"/><path d="m256 220a44.049 44.049 0 0 0 44-44c0-28.158-31.88-60.85-35.515-64.485a12 12 0 0 0 -16.97 0c-3.635 3.635-35.515 36.327-35.515 64.485a44.049 44.049 0 0 0 44 44zm0-82.112c9.748 11.771 20 27.546 20 38.112a20 20 0 0 1 -40 0c0-10.567 10.254-26.344 20-38.112z"/><path d="m168 284h28v4a12 12 0 0 0 24 0v-4h124a12 12 0 0 0 0-24h-124v-4a12 12 0 0 0 -24 0v4h-28a12 12 0 0 0 0 24z"/><path d="m344 340h-60v-4a12 12 0 0 0 -24 0v4h-92a12 12 0 0 0 0 24h92v4a12 12 0 0 0 24 0v-4h60a12 12 0 0 0 0-24z"/></g></g></svg>