<svg height="512" viewBox="0 0 512 512" width="512" xmlns="http://www.w3.org/2000/svg"><g id="_17-plug" data-name="17-plug"><g id="linear_color" data-name="linear color"><path d="m224 228h-22.38l23.6-28.318a12 12 0 1 0 -18.438-15.364l-40 48a12 12 0 0 0 9.218 19.682h22.38l-23.6 28.318a12 12 0 0 0 18.438 15.364l40-48a12 12 0 0 0 -9.218-19.682z"/><path d="m384 196a123.228 123.228 0 0 0 -60 15.516v-67.516a12 12 0 0 0 -12-12h-12v-92a36 36 0 0 0 -72 0v92h-56v-92a36 36 0 0 0 -72 0v92h-12a12 12 0 0 0 -12 12v128a76.086 76.086 0 0 0 76 76h36v16a40.045 40.045 0 0 0 40 40 16 16 0 0 1 0 32h-56.281a40 40 0 0 0 -39.987 41.014l.49 19.29a12 12 0 0 0 11.99 11.7h.31a12 12 0 0 0 11.692-12.3l-.489-19.291a16 16 0 0 1 15.994-16.413h56.281a40 40 0 0 0 0-80 16.019 16.019 0 0 1 -16-16v-16h36a76.342 76.342 0 0 0 14.871-1.451 124 124 0 1 0 121.129-150.549zm-132-156a12 12 0 0 1 24 0v92h-24zm-128 0a12 12 0 0 1 24 0v92h-24zm124 284h-96a52.059 52.059 0 0 1 -52-52v-116h200v72.874a123.686 123.686 0 0 0 -40 91.126c0 .868.015 1.732.033 2.6a52.1 52.1 0 0 1 -12.033 1.4zm136 96c-55.289.231-100.283-45.723-100-100a100 100 0 1 1 100 100z"/><circle cx="384.551" cy="376" r="12.002"/><path d="m422.746 319.73a68.044 68.044 0 0 0 -77.727.933c-12.662 9.567.907 28.4 13.962 19.52a44.045 44.045 0 0 1 50.273-.6 12 12 0 0 0 13.492-19.849z"/><path d="m455.326 284.079a116.052 116.052 0 0 0 -142.778.959c-12.171 10.169 2.287 28.319 14.9 18.812a92.052 92.052 0 0 1 113.222-.763 12 12 0 1 0 14.652-19.008z"/></g></g></svg>