<?xml version="1.0" encoding="UTF-8"?>
<svg xmlns="http://www.w3.org/2000/svg" viewBox="0 0 512 512" width="512" height="512"><g id="_18-fence" data-name="18-fence"><g id="linear_color" data-name="linear color"><circle cx="368.551" cy="440" r="12.002"/><path d="M368,260c-1.339,0-2.671.029-4,.071V184a12,12,0,0,0-3.515-8.485l-24-24a12,12,0,0,0-16.97,0l-24,24A12,12,0,0,0,292,184v20H268V184a12,12,0,0,0-3.515-8.485l-24-24a12,12,0,0,0-16.97,0l-24,24A12,12,0,0,0,196,184v20H172V184a12,12,0,0,0-3.515-8.485l-24-24a12,12,0,0,0-16.97,0l-24,24A12,12,0,0,0,100,184v20H76V184a12,12,0,0,0-3.515-8.485l-24-24a12,12,0,0,0-16.97,0l-24,24A12,12,0,0,0,4,184V408a12,12,0,0,0,12,12H64a12,12,0,0,0,12-12V380h24v28a12,12,0,0,0,12,12h48a12,12,0,0,0,12-12V380h24v28a12,12,0,0,0,12,12h41.336A124,124,0,1,0,368,260Zm-52-71.029,12-12,12,12v74.217a123.036,123.036,0,0,0-24,8.258ZM268,276h24v10.09a125.089,125.089,0,0,0-24,24.679Zm24-48v24H268V228ZM172,276h24v32H172Zm24-48v24H172V228ZM76,276h24v32H76Zm24-48v24H76V228ZM52,396H28V188.971l12-12,12,12Zm24-40V332h24v24Zm72,40H124V188.971l12-12,12,12Zm24-40V332h24v24Zm72,40H220V188.971l12-12,12,12Zm124,88A100,100,0,1,1,468,384,100.113,100.113,0,0,1,368,484Z"/><circle cx="368.551" cy="440" r="12.002"/><path d="M406.746,383.73a68.044,68.044,0,0,0-77.727.933c-12.662,9.567.907,28.4,13.962,19.52a44.045,44.045,0,0,1,50.273-.6C406.573,412.146,419.605,392.954,406.746,383.73Z"/><path d="M439.326,348.079a116.052,116.052,0,0,0-142.778.959c-12.171,10.169,2.287,28.319,14.9,18.812a92.052,92.052,0,0,1,113.222-.763,12,12,0,1,0,14.652-19.008Z"/><path d="M199.515,87.485a12,12,0,0,0,16.97-16.97L204.971,59H340V79a12,12,0,0,0,24,0V15a12,12,0,0,0-24,0V35H204.971l11.514-11.515a12,12,0,0,0-16.97-16.97l-32,32a12,12,0,0,0,0,16.97Z"/></g></g></svg>
