<?xml version="1.0" encoding="UTF-8"?>
<svg xmlns="http://www.w3.org/2000/svg" viewBox="0 0 512 512" width="512" height="512"><g id="_19-watering" data-name="19-watering"><g id="linear_color" data-name="linear color"><path d="M198.954,187.738a12.032,12.032,0,0,0,1.868,3.6c6.718,8.867,21.833,21.694,39.91,21.694a39.389,39.389,0,0,0,18.318-4.609c26.692-13.841,45.611-58.912,47.68-64.006a12,12,0,0,0-8.4-16.2c-5.356-1.245-53.094-11.751-79.785,2.088C192.823,143.641,194.483,173.705,198.954,187.738ZM229.59,151.61c10.724-5.562,31.638-4.968,48.535-2.665C270.9,162.873,259.424,181.2,248,187.12c-11.713,6.074-22.872-4.453-26.705-8.693C220.053,172.92,217.848,157.7,229.59,151.61Z"/><path d="M92.95,208.427a39.38,39.38,0,0,0,18.318,4.609c18.075,0,33.193-12.827,39.91-21.694a12.032,12.032,0,0,0,1.868-3.6c4.471-14.033,6.131-44.1-19.588-57.434-26.693-13.84-74.43-3.332-79.785-2.088a12,12,0,0,0-8.4,16.2C47.339,149.515,66.258,194.586,92.95,208.427Zm29.46-56.817c11.705,6.07,9.542,21.24,8.285,26.825-3.841,4.246-14.99,14.754-26.7,8.685-10.725-5.56-22.291-23-30.145-38.133C89.4,146.87,110.99,145.688,122.41,151.61Z"/><path d="M364,256a123.489,123.489,0,0,0-40,6.622V248a12,12,0,0,0-12-12H188V121.076C202.455,115.7,220,103.162,220,80c0-30.066-31.3-67.608-34.873-71.791a12,12,0,0,0-18.254,0C163.3,12.392,132,49.934,132,80c0,23.162,17.545,35.7,32,41.076V236H40a12,12,0,0,0-12,12v48a12,12,0,0,0,12,12H51.639L76.1,497.536A12,12,0,0,0,88,508H264a12,12,0,0,0,11.9-10.464l3.484-26.982A123.973,123.973,0,1,0,364,256ZM156,80c0-12.08,10.154-30.374,19.976-44.313C185.014,48.514,196,67.135,196,80c0,13.185-14.463,18.248-20,19.7C170.463,98.248,156,93.185,156,80ZM300,260v13.829A124.711,124.711,0,0,0,285.605,284H52V260ZM98.551,484,75.838,308H263.1a123.747,123.747,0,0,0-4.624,137.051L253.45,484ZM364,480A100,100,0,1,1,464,380,100.113,100.113,0,0,1,364,480Z"/><circle cx="364.551" cy="436" r="12" transform="translate(-72.859 798.858) rotate(-89.778)"/><path d="M402.746,379.73a68.046,68.046,0,0,0-77.727.932,12,12,0,1,0,13.962,19.522,44.04,44.04,0,0,1,50.273-.6,12,12,0,0,0,13.492-19.85Z"/><path d="M435.326,344.078a116.056,116.056,0,0,0-142.778.959,12,12,0,0,0,14.9,18.813,92.051,92.051,0,0,1,113.223-.762,12,12,0,0,0,14.652-19.01Z"/></g></g></svg>
