<?xml version="1.0" encoding="UTF-8"?>
<svg xmlns="http://www.w3.org/2000/svg" viewBox="0 0 512 512" width="512" height="512"><g id="_20-mobile" data-name="20-mobile"><g id="linear_color" data-name="linear color"><path d="M218.043,444.021H167.087a12,12,0,1,0,0,24h50.956a12,12,0,1,0,0-24Z"/><path d="M352,132H340V32A28.032,28.032,0,0,0,312,4H72A28.032,28.032,0,0,0,44,32V480a28.032,28.032,0,0,0,28,28H312a28.032,28.032,0,0,0,28-28V332h12a36.04,36.04,0,0,0,36-36V168A36.04,36.04,0,0,0,352,132ZM72,28H312a4,4,0,0,1,4,4V59.956H68V32A4,4,0,0,1,72,28ZM312,484H72a4,4,0,0,1-4-4V428.043H316V480A4,4,0,0,1,312,484Zm4-79.957H68V83.956H316V132H192a36.04,36.04,0,0,0-36,36V352c-.312,9.752,12.057,15.717,19.5,9.37L212.209,332H316ZM364,296a12.013,12.013,0,0,1-12,12H208a12,12,0,0,0-7.5,2.63l-20.5,16.4V168a12.013,12.013,0,0,1,12-12H352a12.013,12.013,0,0,1,12,12Z"/><path d="M326.656,214.016l-48-32a12,12,0,0,0-13.312,0l-48,32A11.993,11.993,0,0,0,228,235.3V272a12,12,0,0,0,12,12h64a12,12,0,0,0,12-12V235.309a12,12,0,0,0,10.656-21.293ZM252,260V219.755l20-13.333,20,13.333V260Z"/><path d="M430.69,198.239a12,12,0,0,0-2.779,16.742,44.045,44.045,0,0,1,.6,50.273,12,12,0,1,0,19.848,13.492,68.041,68.041,0,0,0-.932-77.727A12,12,0,0,0,430.69,198.239Z"/><path d="M483.056,168.548a12,12,0,0,0-18.812,14.9,92.05,92.05,0,0,1,.762,113.222,12,12,0,1,0,19.009,14.652,116.052,116.052,0,0,0-.959-142.778Z"/></g></g></svg>
