<?xml version="1.0" encoding="UTF-8"?>
<svg xmlns="http://www.w3.org/2000/svg" viewBox="0 0 512 512" width="512" height="512"><g id="_21-mobile" data-name="21-mobile"><g id="linear_color" data-name="linear color"><path d="M480,4H32A28.032,28.032,0,0,0,4,32V272a28.032,28.032,0,0,0,28,28H175a12,12,0,0,0,0-24H83.957V28H404.043s.071,257.348.18,258a12.012,12.012,0,0,0,11.82,14H480a28.032,28.032,0,0,0,28-28V32A28.032,28.032,0,0,0,480,4ZM59.957,276H32a4,4,0,0,1-4-4V32a4,4,0,0,1,4-4H59.957ZM484,272a4,4,0,0,1-4,4H428.043V28H480a4,4,0,0,1,4,4Z"/><path d="M456.021,113.956a12,12,0,0,0-12,12v50.957a12,12,0,0,0,24,0V125.956A12,12,0,0,0,456.021,113.956Z"/><path d="M391.957,303a35.854,35.854,0,0,0-15.928,3.717,36.023,36.023,0,0,0-48.058-16,36.03,36.03,0,0,0-44.145-17.653V244H312a12,12,0,0,0,12-12V137.089l13.344,8.9a12,12,0,1,0,13.312-19.968l-96-64a12,12,0,0,0-13.312,0l-96,64a12,12,0,1,0,13.312,19.968l13.344-8.9V232a12,12,0,0,0,12,12h27.74V378.456c-3.048-3.989-5.832-7.569-8.329-10.705-18.031-22.646-40.2-24.766-55.621-22.557a76.98,76.98,0,0,0-28.215,10.016,12.066,12.066,0,0,0-3.047,17.492l97.738,125.66a12.009,12.009,0,0,0,18.976-14.724L145.048,370.249a48.927,48.927,0,0,1,6.837-1.391c13.259-1.691,23.962,2.833,32.718,13.83,7.334,9.213,17.237,22.378,29.434,39.13,6.767,9.31,21.738,4.456,21.731-7.058V227a12.015,12.015,0,0,1,24.029,0V347c.4,15.809,23.614,15.845,24.029,0V307a12.015,12.015,0,0,1,24.029,0v48a12.015,12.015,0,0,0,24.029,0V323a12.015,12.015,0,0,1,24.029,0v40a12.015,12.015,0,0,0,24.029,0V339a12.015,12.015,0,0,1,24.029,0V491A12.015,12.015,0,0,0,428,491V339A36.062,36.062,0,0,0,391.957,303ZM247.783,191a36.088,36.088,0,0,0-35.354,29H196V121.089l52-34.667,52,34.667V220H283.137A36.09,36.09,0,0,0,247.783,191Z"/></g></g></svg>
