<svg height="512" viewBox="0 0 512 512" width="512" xmlns="http://www.w3.org/2000/svg"><g id="_22-setting" data-name="22-setting"><g id="linear_color" data-name="linear color"><circle cx="64" cy="80" r="12"/><circle cx="112" cy="80" r="12"/><circle cx="160" cy="80" r="12"/><path d="m496 20h-480a12 12 0 0 0 -12 12v448a12 12 0 0 0 12 12h480a12 12 0 0 0 12-12v-448a12 12 0 0 0 -12-12zm-468 24h456v72h-456zm0 424v-328h456v328z"/><circle cx="64" cy="80" r="12"/><circle cx="112" cy="80" r="12"/><circle cx="160" cy="80" r="12"/><path d="m262.656 270.016-96-64a12 12 0 0 0 -13.312 0l-96 64a12 12 0 0 0 13.312 19.968l13.344-8.895v94.911a12 12 0 0 0 12 12h128a12 12 0 0 0 12-12v-94.911l13.344 8.895a12 12 0 1 0 13.312-19.968zm-50.656 93.984h-104v-98.911l52-34.667 52 34.667z"/><path d="m448 196h-84v-12a12 12 0 0 0 -24 0v12h-20a12 12 0 0 0 0 24h20v12a12 12 0 0 0 24 0v-12h84a12 12 0 0 0 0-24z"/><path d="m448 292h-20v-12a12 12 0 0 0 -24 0v12h-84a12 12 0 0 0 0 24h84v12a12 12 0 0 0 24 0v-12h20a12 12 0 0 0 0-24z"/><path d="m448 388h-60v-12a12 12 0 0 0 -24 0v12h-44a12 12 0 0 0 0 24h44v12a12 12 0 0 0 24 0v-12h60a12 12 0 0 0 0-24z"/></g></g></svg>