<?xml version="1.0" encoding="UTF-8"?>
<svg xmlns="http://www.w3.org/2000/svg" viewBox="0 0 512 512" width="512" height="512"><g id="_24-voice" data-name="24-voice"><g id="linear_color" data-name="linear color"><path d="M396,352V315.309a12,12,0,0,0,10.656-21.293l-48-32a12,12,0,0,0-13.312,0l-48,32A11.993,11.993,0,0,0,308,315.3V352a12,12,0,0,0,12,12h64A12,12,0,0,0,396,352Zm-64-12V299.755l20-13.333,20,13.333V340Z"/><path d="M476,370.091V248a36.04,36.04,0,0,0-36-36H371.593A119.133,119.133,0,0,0,380,168c0-40.126-19.963-77.651-56.213-105.662C288.455,35.036,241.652,20,192,20S95.545,35.036,60.213,62.338C23.963,90.349,4,127.874,4,168c0,35.746,16.088,69.8,45.478,96.631l-13.12,52.458c-2.792,9.758,8.666,18.6,17.388,13.446l54.742-29.859A231.875,231.875,0,0,0,192,316a239.624,239.624,0,0,0,36-2.721V432c-.293,9.289,11.083,15.384,18.656,9.984L291.633,412h67.056A76,76,0,1,0,476,370.091ZM282.273,212l9.21-42.981,1.375,3.438A12,12,0,0,0,304,180h51.232a97.943,97.943,0,0,1-9.92,32ZM192,44c85.076,0,155.221,49.236,163.229,112h-43.1l-12.982-32.457a12,12,0,0,0-22.875,1.942l-15.75,73.506-17.375-43.447A12,12,0,0,0,232,148h0a12,12,0,0,0-11.142,7.543l-2.963,7.408L195.538,84.7a12,12,0,0,0-23.252.693l-21.475,96.637-11.234-41.19a12,12,0,0,0-22.813-1.057l-10.959,29.225L91.577,116.843a12,12,0,0,0-22.31-2.209L48.584,156H28.771C36.78,93.236,106.924,44,192,44Zm0,248c-27.855,0-55.382-5.406-79.6-15.635a12,12,0,0,0-10.415.52l-35.7,19.474,8.26-33.028A12,12,0,0,0,70.584,251.2c-23.868-19.9-38.408-44.824-41.807-71.2H56a12,12,0,0,0,10.733-6.634l9.954-19.907,15.736,57.7a12,12,0,0,0,22.813,1.057L126.2,182.989l14.228,52.168A12,12,0,0,0,152,244q.144,0,.288,0a12,12,0,0,0,11.429-9.393l21.74-97.833L204.462,203.3a12,12,0,0,0,22.68,1.16L232,192.314l10.679,26.7A35.966,35.966,0,0,0,228,248v40.974A214.792,214.792,0,0,1,192,292Zm96,96a11.99,11.99,0,0,0-6.656,2.016L252,409.578V248a12.013,12.013,0,0,1,12-12H440a12.013,12.013,0,0,1,12,12V358.69A75.847,75.847,0,0,0,370.091,388Zm144,96a52,52,0,1,1,52-52A52.059,52.059,0,0,1,432,484Z"/><path d="M447.515,407.515,424,431.029l-7.515-7.514a12,12,0,0,0-16.97,16.97l16,16a12,12,0,0,0,16.97,0l32-32a12,12,0,0,0-16.97-16.97Z"/></g></g></svg>
