<svg height="512" viewBox="0 0 512 512" width="512" xmlns="http://www.w3.org/2000/svg"><g id="_25-cloud" data-name="25-cloud"><g id="linear_color" data-name="linear color"><path d="m505.834 234.5a12 12 0 0 0 -4.862-7.793l-224.046-160.007a36.018 36.018 0 0 0 -41.853 0l-224.045 160a12 12 0 0 0 -2.79 16.741l27.905 39.06a12 12 0 0 0 16.2 3.15l23.619-15.022v225.371a12 12 0 0 0 12 12h336.072a12 12 0 0 0 12-12v-225.367l23.619 15.022a12 12 0 0 0 16.2-3.15l27.9-39.06a12 12 0 0 0 2.081-8.945zm-42.9 24.805-32.464-20.649a12 12 0 0 0 -18.44 10.126v235.218h-312.064v-235.221a12 12 0 0 0 -18.44-10.126l-32.464 20.647-14.318-20.04 214.277-153.025a12.014 12.014 0 0 1 13.958 0l214.277 153.025z"/><path d="m181.047 236.071a59.993 59.993 0 0 0 .824 119.876q.558.053 1.129.053h5v40h-28a12 12 0 0 0 0 24h40a12 12 0 0 0 12-12v-52h32v92a12 12 0 0 0 12 12h40a12 12 0 0 0 0-24h-28v-80h32v36a12 12 0 0 0 12 12h40a12 12 0 0 0 0-24h-28v-24h4a60 60 0 1 0 -12.827-118.613 68.008 68.008 0 0 0 -134.126-1.316zm110.953 11.929a44.027 44.027 0 0 1 -.326 5.257 12 12 0 0 0 18.026 11.743 36 36 0 1 1 18.3 67h-4v-28a12 12 0 0 0 -24 0v28h-32v-68a12 12 0 0 0 -24 0v68h-32v-28a12 12 0 0 0 -24 0v28h-4.216c-.179-.012-.358-.02-.538-.022a35.993 35.993 0 1 1 6.777-71.465 12 12 0 0 0 13.994-11.962c0-.191-.008-.381-.017-.638a44 44 0 0 1 88 .087z"/></g></g></svg>