<?xml version="1.0" encoding="UTF-8"?>
<svg xmlns="http://www.w3.org/2000/svg" viewBox="0 0 512 512" width="512" height="512"><g id="_26-eye" data-name="26-eye"><g id="linear_color" data-name="linear color"><path d="M441.275,248.387c-.841-1.026-20.983-25.391-53.6-49.971-28.8-21.7-58.358-36.667-87.279-44.369L327.417,100H416a12,12,0,0,0,0-24H320a12,12,0,0,0-10.733,6.634l-33.311,66.622A161.9,161.9,0,0,0,256,148c-80.323,0-115.619,31-174.095,82.366q-4.784,4.2-9.807,8.6A12,12,0,0,0,80,260c26.455,0,47.014,14.3,70.82,30.847,14.98,10.415,31.045,21.575,49.891,29.644L184.322,356H104a12,12,0,0,0,0,24h88a12,12,0,0,0,10.9-6.972L223.6,328.165A136.647,136.647,0,0,0,256,332c82.683,0,178.613-63.32,182.656-66.016a12,12,0,0,0,2.619-17.6Zm-230.491,50.28c-16.924-7.133-31.733-17.423-46.263-27.525-17.727-12.326-35.881-24.949-57.168-31.173,35.466-31.022,60.568-51.446,94.5-61.228a75.873,75.873,0,0,0,10.887,115.693Zm18.32-39.695-6.09,13.195A51.979,51.979,0,0,1,256,180c1.511,0,3,.079,4.481.206l-7.214,14.428a12,12,0,1,0,21.466,10.732l8.743-17.486a51.976,51.976,0,0,1-38.9,94.84l6.32-13.692A12,12,0,1,0,229.1,258.972ZM256,308a112.587,112.587,0,0,1-22.091-2.167l.456-.988a75.954,75.954,0,0,0,80.576-120.756c45.643,18.19,82.158,52.282,98.5,69.31C385.858,269.84,315.43,308,256,308Z"/><path d="M496,4H448a12,12,0,0,0,0,24h36V64a12,12,0,0,0,24,0V16A12,12,0,0,0,496,4Z"/><path d="M16,76A12,12,0,0,0,28,64V28H64A12,12,0,0,0,64,4H16A12,12,0,0,0,4,16V64A12,12,0,0,0,16,76Z"/><path d="M496,436a12,12,0,0,0-12,12v36H448a12,12,0,0,0,0,24h48a12,12,0,0,0,12-12V448A12,12,0,0,0,496,436Z"/><path d="M64,484H28V448a12,12,0,0,0-24,0v48a12,12,0,0,0,12,12H64a12,12,0,0,0,0-24Z"/><path d="M68,64A12,12,0,0,0,80,76H184a12,12,0,0,0,0-24H80A12,12,0,0,0,68,64Z"/><path d="M184,100H80a12,12,0,0,0,0,24H184a12,12,0,0,0,0-24Z"/><path d="M432,356H328a12,12,0,0,0,0,24H432a12,12,0,0,0,0-24Z"/><path d="M444,416a12,12,0,0,0-12-12H328a12,12,0,0,0,0,24H432A12,12,0,0,0,444,416Z"/></g></g></svg>
