<svg height="512" viewBox="0 0 512 512" width="512" xmlns="http://www.w3.org/2000/svg"><g id="_27-finger" data-name="27-finger"><g id="linear_color" data-name="linear color"><path d="m480 52h-448a28.032 28.032 0 0 0 -28 28v304a28.032 28.032 0 0 0 28 28h244v20a12 12 0 0 0 12 12h128a12 12 0 0 0 12-12v-20h52a28.032 28.032 0 0 0 28-28v-304a28.032 28.032 0 0 0 -28-28zm-452 332v-304a4 4 0 0 1 4-4h27.957v312h-27.957a4 4 0 0 1 -4-4zm55.957 4v-312h320.086v216.274l-45.387-30.258a12 12 0 0 0 -13.312 0l-16.46 10.973c-.054-2.756-.117-5.4-.189-7.85-.514-17.538-2.006-36.181-9.375-53.694-12.478-29.652-38.1-47.94-70.3-50.175a12 12 0 1 0 -1.662 23.941c22.836 1.586 41 14.541 49.84 35.543 5.842 13.884 7.06 29.875 7.507 45.09.2 6.685.328 14.812.379 23.01l-55.741 37.162a12 12 0 0 0 13.312 19.968l13.345-8.895v50.911zm320.043 32h-104v-98.911l52-34.667 52 34.667zm80-36a4 4 0 0 1 -4 4h-51.957v-50.883l13.3 8.867a12 12 0 1 0 13.312-19.968l-26.613-17.742v-232.274h51.958a4 4 0 0 1 4 4z"/><path d="m456 196a12 12 0 0 0 -12 12v48a12 12 0 0 0 24 0v-48a12 12 0 0 0 -12-12z"/><path d="m180.352 154.792c18.424-12.926 44.053-19.295 70.309-17.478 40.9 2.831 74.805 27.047 90.685 64.78a130.513 130.513 0 0 1 8.048 27.7 12 12 0 1 0 23.616-4.275 154.239 154.239 0 0 0 -9.543-32.734c-19.467-46.258-61.019-75.945-111.149-79.414-32.115-2.219-62.565 5.51-85.749 21.773a114.345 114.345 0 0 0 -47 84.991c-2.4 33.678-2.59 75.461-2.59 126.584a12 12 0 1 0 24 0c0-50.639.186-91.99 2.53-124.877a91.4 91.4 0 0 1 36.843-67.05z"/><path d="m182.336 270.125c2.073-34.926 10.49-57.759 26.489-71.855a12 12 0 1 0 -15.866-18.008c-21.116 18.6-32.1 46.708-34.581 88.441-2.066 34.81 1.268 76.021 1.411 77.758a12 12 0 0 0 11.946 11.017c.33 0 .663-.014 1-.041a12 12 0 0 0 10.976-12.945c-.14-1.668-3.342-41.234-1.375-74.367z"/><path d="m256.809 267.227a12 12 0 0 0 23.99-.694c-.43-14.87-1.55-26.756-5.623-36.432-5.358-12.731-15.544-19.969-29.46-20.932a28.383 28.383 0 0 0 -21.1 7.129c-10.746 9.448-16.769 27.522-18.415 55.255-1.867 31.451 1.2 69.363 1.333 70.962a12 12 0 0 0 11.945 11.015c.33 0 .663-.013 1-.041a12 12 0 0 0 10.977-12.942c-.031-.375-3.059-37.845-1.294-67.572 1.719-28.971 8.321-36.911 10.3-38.654a4.375 4.375 0 0 1 3.593-1.209c7.125.488 11.859 3.133 12.754 34.115z"/></g></g></svg>