<svg height="512" viewBox="0 0 512 512" width="512" xmlns="http://www.w3.org/2000/svg"><g id="_28-voice" data-name="28-voice"><g id="linear_color" data-name="linear color"><circle cx="384.55" cy="296" r="12.002"/><path d="m480 388h-43.97v-35.461a124 124 0 0 0 -84.157-232.31l-74.952-53.529a36.006 36.006 0 0 0 -41.845 0l-224.05 160a12 12 0 0 0 -2.79 16.742l27.91 39.061a12 12 0 0 0 16.206 3.148l23.608-15.014v117.363h-43.96a12 12 0 0 0 0 24h43.96v84a12 12 0 0 0 12 12h336.07a12 12 0 0 0 12-12v-84h43.97a12 12 0 0 0 0-24zm-67.97 0h-27.1l-7.248-24.16q3.14.159 6.318.16a123.932 123.932 0 0 0 28.031-3.2zm71.97-148a100 100 0 1 1 -100-100 100.112 100.112 0 0 1 100 100zm-434.937 19.3-14.321-20.04 214.285-153.028a12.01 12.01 0 0 1 13.95 0l62.367 44.54a123.964 123.964 0 0 0 4.267 220.642l-17.377 55.6-12.74-42.468a12 12 0 0 0 -21.784-2.726l-8.35 13.916-17.627-82.257a12 12 0 0 0 -23.3-.7l-29.964 107.897-19.192-52.776a12 12 0 0 0 -11.217-7.9h-.06a12 12 0 0 0 -11.235 7.786l-10.47 27.914-14.653-58.61a12 12 0 0 0 -22.784-1.547l-8.9 22.246v-89.009a12 12 0 0 0 -18.441-10.125zm362.967 224.7h-312.07v-81.589l17.4-43.5 15 60a12 12 0 0 0 22.878 1.3l12.591-33.576 20.9 57.463a12 12 0 0 0 22.839-.889l26.932-96.958 13.771 64.264a12 12 0 0 0 22.023 3.659l10.022-16.7 16.194 53.978a12 12 0 0 0 11.422 8.548h.068a12 12 0 0 0 11.453-8.421l28.312-90.6 12.74 42.465a12 12 0 0 0 11.495 8.556h36.03z"/><circle cx="384.55" cy="296" r="12.002"/><path d="m422.744 239.73a68.044 68.044 0 0 0 -77.726.932c-12.662 9.568.906 28.4 13.962 19.522a44.042 44.042 0 0 1 50.274-.6 12 12 0 1 0 13.49-19.85z"/><path d="m310.594 221.9a12 12 0 0 0 16.857 1.953 92.053 92.053 0 0 1 113.223-.761 12 12 0 1 0 14.65-19.01 116.052 116.052 0 0 0 -142.777.96 12 12 0 0 0 -1.953 16.858z"/></g></g></svg>