<?xml version="1.0" encoding="UTF-8"?>
<svg xmlns="http://www.w3.org/2000/svg" viewBox="0 0 512 512" width="512" height="512"><g id="_29-cooker" data-name="29-cooker"><g id="linear_color" data-name="linear color"><circle cx="380.551" cy="436" r="12.002"/><path d="M256,228H224a12,12,0,0,0,0,24h32a12,12,0,0,0,0-24Z"/><path d="M436,269.385V148h28a12,12,0,0,0,0-24H436V104a44.061,44.061,0,0,0-39.382-43.756C382.005,48.523,321.147,4,240,4S98,48.523,83.382,60.244A44.061,44.061,0,0,0,44,104v20H16a12,12,0,0,0,0,24H44V480a12,12,0,0,0,12,12H88a12,12,0,0,0,10.29-5.826L118.794,452H279.1A123.973,123.973,0,1,0,436,269.385ZM380,256a123.247,123.247,0,0,0-56,13.385V224a44.049,44.049,0,0,0-44-44H200a44.049,44.049,0,0,0-44,44V336a12,12,0,0,0,12,12h92.2A123.712,123.712,0,0,0,256,380H68V148H412V260.2A123.712,123.712,0,0,0,380,256ZM269.385,324H180V300H285.34A124.441,124.441,0,0,0,269.385,324ZM300,276H180V224a20.023,20.023,0,0,1,20-20h80a20.023,20.023,0,0,1,20,20ZM353.112,60H126.889C152.784,45.191,192.968,28,240,28S327.22,45.192,353.112,60ZM68,104A20.023,20.023,0,0,1,88,84H392a20.023,20.023,0,0,1,20,20v20H68Zm44,324a12,12,0,0,0-10.29,5.826L81.206,468H68V404H258.34a122.871,122.871,0,0,0,7.33,24Zm268,52A100,100,0,1,1,480,380,100.112,100.112,0,0,1,380,480Z"/><circle cx="380.551" cy="436" r="12.002"/><path d="M418.746,379.73a68.046,68.046,0,0,0-77.727.932c-12.662,9.568.906,28.4,13.962,19.522a44.04,44.04,0,0,1,50.273-.6,12,12,0,0,0,13.492-19.85Z"/><path d="M451.325,344.078a116.054,116.054,0,0,0-142.777.959c-12.171,10.171,2.286,28.318,14.9,18.813a92.051,92.051,0,0,1,113.223-.762,12,12,0,1,0,14.65-19.01Z"/></g></g></svg>
