<svg height="512" viewBox="0 0 512 512" width="512" xmlns="http://www.w3.org/2000/svg"><g id="_30-tab" data-name="30-tab"><g id="linear_color" data-name="linear color"><circle cx="132.551" cy="436" r="12.002"/><path d="m476 378.928v-70.928h12a12 12 0 0 0 0-24h-12v-68a44 44 0 0 0 -88 0v16a12 12 0 0 0 24 0v-16a20 20 0 0 1 40 0v68h-64v-12a12 12 0 0 0 -24 0v12h-16v-12a12 12 0 0 0 -24 0v12h-113.6a124 124 0 1 0 16.26 176h173.34a75.8 75.8 0 0 0 72.805-54.058 36.036 36.036 0 0 1 11.195 26.058v56a12 12 0 0 0 24 0v-56a60.112 60.112 0 0 0 -32-53.072zm-24-6.784c-1.328-.087-2.66-.144-4-.144h-192.265a123.276 123.276 0 0 0 -22.835-64h219.1zm-320 107.856a100 100 0 1 1 100-100 100.112 100.112 0 0 1 -100 100zm268-44h-157.385a123.046 123.046 0 0 0 12.355-40h193.03c.868 0 1.731.037 2.59.1a51.849 51.849 0 0 1 -50.59 39.9z"/><circle cx="132.551" cy="436" r="12.002"/><path d="m170.746 379.73a68.046 68.046 0 0 0 -77.727.932c-12.662 9.568.906 28.4 13.962 19.522a44.04 44.04 0 0 1 50.273-.6 12 12 0 0 0 13.492-19.85z"/><path d="m203.325 344.078a116.054 116.054 0 0 0 -142.777.959c-12.171 10.171 2.286 28.318 14.9 18.813a92.051 92.051 0 0 1 113.223-.762 12 12 0 1 0 14.65-19.01z"/><path d="m256 188a60.068 60.068 0 0 0 60-60c0-13.751-8.589-32.379-26.258-56.947-12.237-17.017-24.3-30.5-24.81-31.068a12 12 0 0 0 -17.864 0c-.506.566-12.573 14.051-24.81 31.068-17.669 24.568-26.258 43.196-26.258 56.947a60.068 60.068 0 0 0 60 60zm0-121.547c17.117 20.873 36 48.758 36 61.547a36 36 0 0 1 -72 0c0-12.79 18.883-40.675 36-61.547z"/></g></g></svg>