<?xml version="1.0" encoding="UTF-8"?>
<svg xmlns="http://www.w3.org/2000/svg" viewBox="0 0 512 512" width="512" height="512"><g id="_31-alarm_clock" data-name="31-alarm clock"><g id="gradient"><circle cx="232" cy="268" r="12"/><circle cx="232" cy="332" r="12"/><circle cx="384.551" cy="436" r="12.002"/><circle cx="232" cy="268" r="12"/><circle cx="232" cy="332" r="12"/><path d="M172,252H148a24.028,24.028,0,0,0-24,24v56a24.028,24.028,0,0,0,24,24h24a24.028,24.028,0,0,0,24-24V276A24.028,24.028,0,0,0,172,252Zm0,80H148V276h24l.015,56Z"/><path d="M160,76h35.029l-43.514,43.515A12,12,0,0,0,160,140h64a12,12,0,0,0,0-24H188.971l43.514-43.515A12,12,0,0,0,224,52H160a12,12,0,0,0,0,24Z"/><path d="M360,28h35.029L351.515,71.515A12,12,0,0,0,360,92h64a12,12,0,0,0,0-24H388.971l43.514-43.515A12,12,0,0,0,424,4H360a12,12,0,0,0,0,24Z"/><path d="M272,52h14.379l-23.6,28.317A12,12,0,0,0,272,100h40a12,12,0,0,0,0-24H297.621l23.6-28.317A12,12,0,0,0,312,28H272a12,12,0,0,0,0,24Z"/><path d="M460,282.09V192a36.04,36.04,0,0,0-36-36H40A36.04,36.04,0,0,0,4,192V416a36.04,36.04,0,0,0,36,36H283.1A123.958,123.958,0,1,0,460,282.09ZM40,428a12.013,12.013,0,0,1-12-12V192a12.013,12.013,0,0,1,12-12H424a12.013,12.013,0,0,1,12,12v75.446a123.036,123.036,0,0,0-24-8.258V216a12,12,0,0,0-12-12H64a12,12,0,0,0-12,12V392a12,12,0,0,0,12,12H262.34a122.871,122.871,0,0,0,7.33,24ZM292,296.952V276h24v.362A124.935,124.935,0,0,0,292,296.952Zm45.375-31.845A24.022,24.022,0,0,0,316,252H292a24.027,24.027,0,0,0-24,24v56a23.958,23.958,0,0,0,.276,3.468A123.362,123.362,0,0,0,260,380H76V228H388v28.071c-1.329-.042-2.661-.071-4-.071A123.321,123.321,0,0,0,337.375,265.107ZM384,480A100,100,0,1,1,484,380,100.113,100.113,0,0,1,384,480Z"/><circle cx="384.551" cy="436" r="12" transform="translate(-52.936 818.858) rotate(-89.778)"/><path d="M422.746,379.73a68.046,68.046,0,0,0-77.727.932c-12.661,9.566.9,28.4,13.962,19.522a44.04,44.04,0,0,1,50.273-.6,12,12,0,0,0,13.492-19.85Z"/><path d="M455.326,344.078a116.056,116.056,0,0,0-142.778.959c-12.171,10.169,2.285,28.318,14.9,18.813a92.051,92.051,0,0,1,113.223-.762,12,12,0,0,0,14.652-19.01Z"/></g></g></svg>
