<svg height="512" viewBox="0 0 512 512" width="512" xmlns="http://www.w3.org/2000/svg"><g id="_33-coffee" data-name="33-coffee"><g id="linear_color" data-name="linear color"><circle cx="216" cy="96" r="12"/><circle cx="264" cy="96" r="12"/><circle cx="312" cy="96" r="12"/><circle cx="384.551" cy="440" r="12.002"/><circle cx="216" cy="96" r="12"/><circle cx="264" cy="96" r="12"/><circle cx="312" cy="96" r="12"/><path d="m384 260a124.014 124.014 0 0 0 -118.664 160h-117.336v-224h24v48a24.028 24.028 0 0 0 24 24h80a24.028 24.028 0 0 0 24-24v-3.013c55.695-15.67 112.046-17.1 167.634-4.216a32.824 32.824 0 1 0 7.541-64.771h-143.175v-24h60a12 12 0 0 0 12-12v-48a44.049 44.049 0 0 0 -44-44h-344a12 12 0 0 0 -12 12v440a12 12 0 0 0 12 12h368a124 124 0 0 0 0-248zm-108-16h-80v-48h80v36c0 .069.011.136.012.205v11.794zm208-39.175a8.626 8.626 0 0 1 -3.307 6.862 8.964 8.964 0 0 1 -7.639 1.7 356.834 356.834 0 0 0 -173.054 2.713v-20.1h175.175a8.835 8.835 0 0 1 8.825 8.825zm-176-32.825h-160v-24h160zm72-84v36h-232v-56h212a20.023 20.023 0 0 1 20 20zm-352-20h96v352h-96zm0 416v-40h247.516a124.9 124.9 0 0 0 35.253 40zm356 0a100 100 0 1 1 100-100 100.113 100.113 0 0 1 -100 100z"/><circle cx="384.551" cy="440" r="12.002"/><path d="m422.746 383.73a68.046 68.046 0 0 0 -77.727.932c-12.661 9.566.9 28.4 13.962 19.522a44.04 44.04 0 0 1 50.273-.6 12 12 0 0 0 13.492-19.85z"/><path d="m312.548 349.037c-12.171 10.169 2.285 28.318 14.9 18.813a92.051 92.051 0 0 1 113.223-.762 12 12 0 0 0 14.652-19.01 116.056 116.056 0 0 0 -142.778.959z"/></g></g></svg>