<svg height="512" viewBox="0 0 512 512" width="512" xmlns="http://www.w3.org/2000/svg"><g id="_34-microwave" data-name="34-microwave"><g id="linear_color" data-name="linear color"><circle cx="184.551" cy="312" r="12.002"/><path d="m472 84h-432a36.04 36.04 0 0 0 -36 36v272a36.04 36.04 0 0 0 36 36h12v12a12 12 0 0 0 24 0v-12h360v12a12 12 0 0 0 24 0v-12h12a36.04 36.04 0 0 0 36-36v-272a36.04 36.04 0 0 0 -36-36zm-432 320a12.013 12.013 0 0 1 -12-12v-272a12.013 12.013 0 0 1 12-12h308v296zm444-12a12.013 12.013 0 0 1 -12 12h-100v-296h100a12.013 12.013 0 0 1 12 12z"/><path d="m428 308a36 36 0 1 0 36 36 36.04 36.04 0 0 0 -36-36zm0 48a12 12 0 1 1 12-12 12.013 12.013 0 0 1 -12 12z"/><circle cx="404" cy="144" r="12"/><circle cx="452" cy="144" r="12"/><circle cx="404" cy="188" r="12"/><circle cx="452" cy="188" r="12"/><circle cx="404" cy="232" r="12"/><circle cx="452" cy="232" r="12"/><circle cx="404" cy="276" r="12"/><circle cx="452" cy="276" r="12"/><path d="m184 132a124 124 0 1 0 124 124 124.14 124.14 0 0 0 -124-124zm0 224a100 100 0 1 1 100-100 100.112 100.112 0 0 1 -100 100z"/><circle cx="184.551" cy="312" r="12.002"/><path d="m222.746 255.73a68.046 68.046 0 0 0 -77.727.932 12 12 0 1 0 13.962 19.522 44.04 44.04 0 0 1 50.273-.6 12 12 0 0 0 13.492-19.85z"/><path d="m112.548 221.037a12 12 0 0 0 14.9 18.813 92.051 92.051 0 0 1 113.223-.762 12 12 0 1 0 14.65-19.01 116.054 116.054 0 0 0 -142.777.959z"/></g></g></svg>