<svg height="512" viewBox="0 0 512 512" width="512" xmlns="http://www.w3.org/2000/svg"><g id="_35-refrigerator" data-name="35-refrigerator"><g id="linear_color" data-name="linear color"><circle cx="368.551" cy="440" r="12.002"/><path d="m192 148a12 12 0 0 0 12-12v-72a12 12 0 0 0 -24 0v72a12 12 0 0 0 12 12z"/><path d="m380 260.583v-244.583a12 12 0 0 0 -12-12h-224a12 12 0 0 0 -12 12v480a12 12 0 0 0 12 12h224a124 124 0 0 0 12-247.417zm-24-232.583v144h-200v-144zm-36.649 168-8 24h-110.7l-8-24zm-163.351 288v-288h11.351l13.265 39.8a12 12 0 0 0 11.384 8.2h128a12 12 0 0 0 11.384-8.205l13.265-39.795h11.351v64.583a123.953 123.953 0 0 0 -61.231 223.417zm212 0a100 100 0 1 1 100-100 100.112 100.112 0 0 1 -100 100z"/><circle cx="368.551" cy="440" r="12.002"/><path d="m406.746 383.73a68.046 68.046 0 0 0 -77.727.932 12 12 0 1 0 13.962 19.522 44.04 44.04 0 0 1 50.273-.6 12 12 0 0 0 13.492-19.85z"/><path d="m439.325 348.078a116.054 116.054 0 0 0 -142.777.959 12 12 0 0 0 14.9 18.813 92.051 92.051 0 0 1 113.223-.762 12 12 0 1 0 14.65-19.01z"/></g></g></svg>