<svg id="_36-laundry" height="512" viewBox="0 0 512 512" width="512" xmlns="http://www.w3.org/2000/svg" data-name="36-laundry"><g id="linear_color" data-name="linear color"><circle cx="444" cy="124" r="12"/><circle cx="392" cy="124" r="12"/><circle cx="340" cy="124" r="12"/><circle cx="128.551" cy="440" r="12.002"/><path d="m496 68h-368a12 12 0 0 0 -12 12v180.583a124 124 0 0 0 12 247.417h368a12 12 0 0 0 12-12v-416a12 12 0 0 0 -12-12zm-356 24h344v64h-344zm-112 292a100 100 0 0 1 200-.189v.1s0 .063 0 .094a100 100 0 0 1 -200 0zm356.994-7.977-17.167-17.167a68.1 68.1 0 0 0 0-77.712l17.167-17.167a92.071 92.071 0 0 1 0 112.046zm-41.882-87.135a44 44 0 0 1 0 62.224 12 12 0 0 0 0 16.971l19.195 19.195a84 84 0 0 1 -110.43-8.626 123.289 123.289 0 0 0 -23.443-67.289 84.017 84.017 0 0 1 133.873-58.64l-19.195 19.194a12 12 0 0 0 0 16.971zm-141.881 195.112a124.218 124.218 0 0 0 48.4-75.846 107.977 107.977 0 0 0 130.169-4.081 11.986 11.986 0 0 0 14.224-2.049 116 116 0 0 0 0-164.048 12 12 0 0 0 -14.223-2.049 108.039 108.039 0 0 0 -171.473 53.691 123.48 123.48 0 0 0 -68.328-29.035v-80.583h344v304z"/><path d="m447 436h-48a12 12 0 0 0 0 24h48a12 12 0 0 0 0-24z"/><circle cx="444" cy="124" r="12"/><circle cx="392" cy="124" r="12"/><circle cx="340" cy="124" r="12"/><path d="m216 112h-40a12 12 0 0 0 0 24h40a12 12 0 0 0 0-24z"/><circle cx="128.551" cy="440" r="12.002"/><path d="m153.254 403.58a12 12 0 0 0 13.492-19.85 68.046 68.046 0 0 0 -77.727.932 12 12 0 1 0 13.962 19.522 44.04 44.04 0 0 1 50.273-.6z"/><path d="m184.675 367.088a12 12 0 1 0 14.65-19.01 116.054 116.054 0 0 0 -142.777.959 12 12 0 0 0 14.9 18.813 92.051 92.051 0 0 1 113.223-.762z"/></g></svg>